<?xml version="1.0" encoding="utf-8"?>
<!-- Generator: Adobe Illustrator 24.0.1, SVG Export Plug-In . SVG Version: 6.00 Build 0)  -->
<svg version="1.1" id="Layer_1" xmlns="http://www.w3.org/2000/svg" xmlns:xlink="http://www.w3.org/1999/xlink" x="0px" y="0px"
	 viewBox="0 0 139.8 38" style="enable-background:new 0 0 139.8 38;" xml:space="preserve">
<style type="text/css">
	.st0{fill:#D69F83;}
	.st1{fill:#EACFBE;}
	.st2{fill:#0C0C0C;}
	.st3{fill:#FFFFFF;}
	.st4{fill:url(#SVGID_1_);}
	.st5{fill:url(#SVGID_2_);}
	.st6{fill:url(#SVGID_3_);}
	.st7{fill:url(#SVGID_4_);}
	.st8{fill:url(#SVGID_5_);}
	.st9{fill:url(#SVGID_6_);}
	.st10{fill:url(#SVGID_7_);}
	.st11{fill:#E6C199;}
	.st12{fill:#00B3B7;}
	.st13{fill:#00838C;}
</style>
<path class="st0" d="M21.9,27c0,0-1.5-1.5-2.7-1.5c-0.2,0-0.4,0.1-0.5,0.3c-0.2,0.3-0.3,0.7,0.3,1.2c1,0.8,5.5,2.8,5.5,2.8
	s0.2-0.5,0.3-0.6L21.9,27z"/>
<path class="st1" d="M25.2,28.7c0,0-0.5,0.5-0.5,0.6c0,0-4.2-2.7-4.4-4.1c0,0-0.2-0.8,0.2-1c0.4-0.2,1.7,0.4,2,0.7
	C22.8,25.3,25.2,28.7,25.2,28.7z"/>
<path class="st0" d="M23.4,23.2c0-0.2-0.2-0.4-0.5-0.4c-0.4,0-0.8,0.1-0.9,0.6c-0.2,0.8,1.2,2.8,1.2,2.8s1.8,2.5,2,2.6l0.5-0.3
	C25.6,28.4,23.7,25,23.4,23.2z"/>
<path class="st2" d="M24.5,29.8c0,0,0.2-1,1.1-1.4l1.5,2.4L24.5,29.8z"/>
<path class="st3" d="M24.9,29.5c0,0-0.1,0.1-0.1,0.3c0,0,1.6,0.7,1.7,0.7L24.9,29.5z"/>
<linearGradient id="SVGID_1_" gradientUnits="userSpaceOnUse" x1="16.0419" y1="765.2794" x2="25.9536" y2="771.9798" gradientTransform="matrix(1 0 0 1 0 -752)">
	<stop  offset="0" style="stop-color:#00838C"/>
	<stop  offset="1" style="stop-color:#00B3B7"/>
</linearGradient>
<path class="st4" d="M17.7,12.3c0,0,7,2.7,5.7,9.9c0,0-2-0.5-2.2,1.4c0,0-13.3-5.9-4.9-17.2c0,0-2.1,3.3,1.4,6.7s3.9,5.7,3.9,5.7
	S21.4,15.9,17.7,12.3z"/>
<linearGradient id="SVGID_2_" gradientUnits="userSpaceOnUse" x1="14.0295" y1="765.6644" x2="19.8973" y2="773.4353" gradientTransform="matrix(1 0 0 1 0 -752)">
	<stop  offset="0" style="stop-color:#00838C"/>
	<stop  offset="1" style="stop-color:#00B3B7"/>
</linearGradient>
<path class="st5" d="M16.2,6.4c0,0-6,2.1-5.3,9.8s6.5,10.2,7,10.4c0,0,0-1.6,1.1-1.6C19,25,8.8,18.3,16.2,6.4z"/>
<linearGradient id="SVGID_3_" gradientUnits="userSpaceOnUse" x1="9.1923" y1="763.9678" x2="15.8266" y2="763.9413" gradientTransform="matrix(1 0 0 1 0 -752)">
	<stop  offset="0" style="stop-color:#00838C"/>
	<stop  offset="1" style="stop-color:#00B3B7"/>
</linearGradient>
<path class="st6" d="M16.2,6.4c0,0-5.8,2.4-5.1,11.1C11.1,17.5,9.2,9.3,16.2,6.4z"/>
<linearGradient id="SVGID_4_" gradientUnits="userSpaceOnUse" x1="15.2147" y1="776.1294" x2="21.664" y2="773.9092" gradientTransform="matrix(1 0 0 1 0 -752)">
	<stop  offset="0" style="stop-color:#00838C"/>
	<stop  offset="1" style="stop-color:#00B3B7"/>
</linearGradient>
<path class="st7" d="M12.6,21.6c0,0,2.3,2.5,6.5,3.4c0,0-1.1,0.1-1.1,1.6C17.9,26.6,14.4,25.1,12.6,21.6z"/>
<linearGradient id="SVGID_5_" gradientUnits="userSpaceOnUse" x1="12.4364" y1="763.9014" x2="16.0183" y2="763.4376" gradientTransform="matrix(1 0 0 1 0 -752)">
	<stop  offset="0" style="stop-color:#00838C"/>
	<stop  offset="1" style="stop-color:#00B3B7"/>
</linearGradient>
<path class="st8" d="M16.2,6.4c0,0-4.6,5.6-2.1,10.3C14.1,16.6,13.5,9.8,16.2,6.4z"/>
<linearGradient id="SVGID_6_" gradientUnits="userSpaceOnUse" x1="13.1578" y1="764.9307" x2="20.8229" y2="764.4814" gradientTransform="matrix(1 0 0 1 0 -752)">
	<stop  offset="0" style="stop-color:#00838C"/>
	<stop  offset="1" style="stop-color:#00B3B7"/>
</linearGradient>
<path class="st9" d="M21.4,18.8c0,0-0.2-2.1-3.4-5.2s-2.6-5.7-1.8-7.2c0,0-2.3,3.3,0,6.3S21,17.4,21.4,18.8z"/>
<linearGradient id="SVGID_7_" gradientUnits="userSpaceOnUse" x1="18.0606" y1="768.2103" x2="22.5276" y2="767.8403" gradientTransform="matrix(1 0 0 1 0 -752)">
	<stop  offset="0" style="stop-color:#00838C"/>
	<stop  offset="1" style="stop-color:#00B3B7"/>
</linearGradient>
<path class="st10" d="M17.7,12.3c0,0,5.2,1.8,5.8,7.4C23.5,19.7,22.3,15.1,17.7,12.3z"/>
<g>
	<g>
		<g>
			<g>
				<path class="st11" d="M19.7,34.9c-9,0-16.3-7.3-16.3-16.3S10.7,2.3,19.7,2.3S36,9.6,36,18.6S28.7,34.9,19.7,34.9z M19.7,2.5
					c-8.9,0-16.1,7.2-16.1,16.1s7.2,16.1,16.1,16.1s16.1-7.2,16.1-16.1S28.6,2.5,19.7,2.5z"/>
				<path class="st12" d="M19.7,35.1c-9.1,0-16.5-7.4-16.5-16.5S10.6,2.1,19.7,2.1s16.5,7.4,16.5,16.5S28.8,35.1,19.7,35.1z
					 M19.7,2.7c-8.8,0-16,7.2-16,16s7.2,16,16,16s16-7.2,16-16S28.5,2.7,19.7,2.7z"/>
			</g>
		</g>
	</g>
</g>
<g>
	<g>
		<g>
			<path class="st13" d="M18.8,35.8c-9,0-16.3-7.3-16.3-16.3S9.8,3.2,18.8,3.2s16.3,7.3,16.3,16.3S27.8,35.8,18.8,35.8z M18.8,3.4
				c-8.9,0-16.1,7.2-16.1,16.1s7.2,16.1,16.1,16.1s16.1-7.2,16.1-16.1S27.7,3.4,18.8,3.4z"/>
			<path class="st13" d="M18.8,36.1c-9.1,0-16.6-7.4-16.6-16.6c0-9.1,7.4-16.6,16.6-16.6c9.1,0,16.6,7.4,16.6,16.6
				S27.9,36.1,18.8,36.1z M18.8,3.7C10,3.7,2.9,10.8,2.9,19.5S10,35.4,18.8,35.4c8.7,0,15.9-7.1,15.9-15.9
				C34.6,10.8,27.5,3.7,18.8,3.7z"/>
		</g>
	</g>
</g>
<path d="M42.9,9.7v7.7h-1.8V9.7h-2.9l0.6-1.8h6.5v1.8H42.9z"/>
<path d="M48,13.5v3.8h-1.8v-3.8h-0.6l0.6-1.8V7.9H48v3.8h3V7.9h1.8v9.4H51v-3.8C51,13.5,48,13.5,48,13.5z"/>
<path d="M55.8,11.7h4l-0.6,1.8h-3.4c0.1,0.4,0.4,0.8,0.7,1.2c0.6,0.6,1.3,0.9,2.1,0.9H61l-0.6,1.8h-1.8c-1.3,0-2.4-0.5-3.3-1.4
	c-0.7-0.7-1.1-1.5-1.3-2.4h-0.7l0.6-1.8H54c0.2-0.9,0.6-1.7,1.3-2.5c0.9-0.9,2-1.4,3.3-1.4H61l-0.6,1.8h-1.8c-0.8,0-1.5,0.3-2.1,0.9
	C56.2,10.9,56,11.3,55.8,11.7z"/>
<path class="st13" d="M45.7,26.7l-2,3.7l-5.7-10.6h2.2l3.4,6.4l0.9-1.7l-2.5-4.8h2.2l1.4,2.6l1.4-2.6h2.2l-2.5,4.8l0.9,1.7l3.4-6.4
	h2.2l-5.6,10.7L45.7,26.7z"/>
<path class="st13" d="M56,26.1v4.3h-2v-4.3h-0.7l0.7-2v-4.3h4.8c2.1,0,3.1,1.1,3.1,3.1c0,2-0.9,2.9-2.6,3.1l4.3,4.3h-2.8l-4.2-4.3
	H56z M56,24.2h2.8c0.8,0,1.2-0.4,1.2-1.2c0-0.8-0.4-1.2-1.2-1.2H56V24.2z"/>
<path class="st13" d="M66.2,30.4h-2v-4.3h-0.7l0.7-2v-4.3h2V30.4z"/>
<path class="st13" d="M72.2,21.9v8.6h-2v-8.6h-3.3l0.7-2h7.3v2C74.9,21.9,72.2,21.9,72.2,21.9z"/>
<path class="st13" d="M76.7,24.2h4.5l-0.7,2h-3.8c0.2,0.5,0.4,1,0.8,1.4c0.7,0.7,1.5,1,2.3,1h2.6l-0.7,2h-2c-1.5,0-2.7-0.5-3.7-1.6
	c-0.8-0.8-1.3-1.7-1.5-2.7h-0.8l0.7-2h0.1c0.2-1.1,0.7-2,1.5-2.7c1.1-1.1,2.2-1.6,3.7-1.6h2.6l-0.7,2h-2c-0.9,0-1.7,0.3-2.3,1
	C77.1,23.2,76.9,23.7,76.7,24.2z"/>
<path class="st13" d="M85.2,26.1v4.3h-2v-4.3h-0.7l0.7-2v-4.3H88c2.1,0,3.1,1.1,3.1,3.1c0,2-0.9,2.9-2.6,3.1l4.3,4.3h-2.8l-4.3-4.3
	C85.6,26.1,85.2,26.1,85.2,26.1z M85.2,24.2H88c0.8,0,1.2-0.4,1.2-1.2c0-0.8-0.4-1.2-1.2-1.2h-2.8V24.2z"/>
<path class="st13" d="M96.5,26.1c-2.1,0-3.1-1.1-3.1-3.1s1.1-3.1,3.1-3.1h4.8l-0.7,2h-4.1c-0.8,0-1.2,0.4-1.2,1.2s0.4,1.2,1.2,1.2
	h1.7c2.1,0,3.1,1.1,3.1,3.1s-1.1,3.1-3.1,3.1h-4.8v-2h4.8c0.8,0,1.2-0.4,1.2-1.2s-0.4-1.2-1.2-1.2H96.5z"/>
<path d="M110.1,21.9v8.6h-2v-8.6h-3.3l0.7-2h7.3v2C112.8,21.9,110.1,21.9,110.1,21.9z"/>
<path d="M116,26.1v4.3h-2v-4.3h-0.7l0.7-2v-4.3h4.8c2.1,0,3.1,1.1,3.1,3.1c0,2-0.9,2.9-2.6,3.1l4.3,4.3h-2.8l-4.3-4.3
	C116.4,26.1,116,26.1,116,26.1z M116,24.2h2.8c0.8,0,1.2-0.4,1.2-1.2c0-0.8-0.4-1.2-1.2-1.2H116V24.2z"/>
<path d="M125.2,24.2h4.5l-0.7,2h-3.8c0.2,0.5,0.4,1,0.8,1.4c0.7,0.7,1.5,1,2.3,1h2.6l-0.7,2h-2c-1.5,0-2.7-0.5-3.7-1.6
	c-0.8-0.8-1.3-1.7-1.5-2.7h-0.8l0.7-2h0.1c0.2-1.1,0.7-2,1.5-2.7c1.1-1.1,2.2-1.6,3.7-1.6h2.6l-0.7,2h-2c-0.9,0-1.7,0.3-2.3,1
	C125.6,23.2,125.3,23.7,125.2,24.2z"/>
<path d="M133.2,24.2h4.5l-0.7,2h-3.8c0.2,0.5,0.4,1,0.8,1.4c0.7,0.7,1.5,1,2.3,1h2.6l-0.7,2h-2c-1.5,0-2.7-0.5-3.7-1.6
	c-0.8-0.8-1.3-1.7-1.5-2.7h-0.8l0.7-2h0.1c0.2-1.1,0.7-2,1.5-2.7c1.1-1.1,2.2-1.6,3.7-1.6h2.6l-0.7,2h-2c-0.9,0-1.7,0.3-2.3,1
	C133.6,23.2,133.3,23.7,133.2,24.2z"/>
<path d="M138.6,13H65.3c-0.2,0-0.4-0.2-0.4-0.4l0,0c0-0.2,0.2-0.4,0.4-0.4h73.3c0.2,0,0.4,0.2,0.4,0.4l0,0
	C139,12.8,138.8,13,138.6,13z"/>
</svg>
